# xmcd
#
# Track frame offsets:
#	150
#	13650
#	26260
#	40542
#	52465
#	67570
#	82262
#	96542
#	109100
#	120177
#	133127
#	143750
#	154260
#	167857
#	179735
#	187992
#	199065
#	210915
#	226787
#	239280
#	253762
#	270685
#	282337
#	292327
#
# Disc length: 4006 seconds
#
# Revision: 1
# Processed by: cddbd v1.5.1PL0 Copyright (c) Steve Scherf et al.
# Submitted via: audiograbber 1.83.01
#
DISCID=600fa418
DTITLE=Various Artist - Country Magic [CD5]
DYEAR=1900
DGENRE=Country
TTITLE0=Tanya Tucker - The Jamestown Ferry
TTITLE1=Frank Ifield - The Wayward Wind
TTITLE2=Jim Reeves - Streets Of Laredo
TTITLE3=Jerry Lee Lewis - What Made Milwaukee Famous (Has Made A Loser Out Of M
TTITLE3=e)
TTITLE4=Waylon Jennings and Willie Nelson - Luckenbach, Texas (Back To The Basics
TTITLE4=Of Love)
TTITLE5=Dolly Parton - Harper Valley PTA
TTITLE6=Roger Miller - Jody And The Kid
TTITLE7=Bobby Bare - 500 Miles (Away From Home)
TTITLE8=Skeeter Davis - Take Me Home Country Roads
TTITLE9=Dottie West and Jimmy Dean - Jackson
TTITLE10=Johnny Tillotson - Send Me The Pillow That You Dream On
TTITLE11=Skeeter Davis - I'm A Lover (Not A Fighter)
TTITLE12=Eddy Arnold - The Tip Of My Finger
TTITLE13=Wanda Jackson - In The Middle Of A Heartache
TTITLE14=John D Loudermilk - The Language Of Love
TTITLE15=Charlie Rich - There Won't Be Anymore
TTITLE16=Ray Price - Heartaches By The Number
TTITLE17=Dolly Parton - Release Me
TTITLE18=Jim Reeves - A Letter To My Heart
TTITLE19=Johnny Cash - I Still Miss Someone
TTITLE20=Jeannie Seely - It's Only Love
TTITLE21=Sonny James - The Minute You're Gone
TTITLE22=Don Gibson - Funny, Familiar, Forgotten Feelings
TTITLE23=Eddy Arnold - Georgia On My Mind
EXTD=Country Magic\nReaders Digest
EXTT0=
EXTT1=
EXTT2=
EXTT3=
EXTT4=
EXTT5=
EXTT6=
EXTT7=
EXTT8=
EXTT9=
EXTT10=
EXTT11=
EXTT12=
EXTT13=
EXTT14=
EXTT15=
EXTT16=
EXTT17=
EXTT18=
EXTT19=
EXTT20=
EXTT21=
EXTT22=
EXTT23=
PLAYORDER=
